Coordinates
version=1
nRows=38
nColumns=12
inDegrees=yes

Units are S.I. units (second, meters, Newtons, ...)
Angles are in degrees

endheader
time	SC_y	SC_z	SC_x	AC_y	AC_z	AC_x	GH_y	GH_z	GH_yy	EL_x	PS_y
       0.0               -26.0          22.13          46.69          69.12         -3.614          5.424          149.6          55.37         -45.72          121.9          118.2
   0.04966               -26.0          22.13          46.69          69.12         -3.612          5.424          149.6          55.36         -45.71          121.9          118.2
   0.09932               -26.0          22.13          46.69          69.11          -3.61          5.423          149.5          55.35         -45.69          121.9          118.2
     0.149               -26.0          22.13          46.69          69.11         -3.608          5.423          149.5          55.34         -45.67          121.9          118.2
    0.1986               -26.0          22.12          46.69           69.1         -3.606          5.422          149.5          55.34         -45.65          121.9          118.2
    0.2483              -25.99          22.12          46.69           69.1         -3.603          5.421          149.5          55.33         -45.63          121.9          118.2
     0.298              -25.99          22.12          46.69           69.1         -3.601           5.42          149.4          55.32          -45.6          121.9          118.2
    0.3476              -25.99          22.12          46.69          69.09         -3.598           5.42          149.4           55.3         -45.58          121.9          118.2
    0.3973              -25.99          22.11          46.69          69.09         -3.595          5.419          149.3          55.29         -45.55          121.9          118.1
    0.4469              -25.98          22.11          46.69          69.08         -3.592          5.418          149.3          55.28         -45.52          121.9          118.1
    0.4966              -25.98          22.11          46.69          69.07         -3.588          5.417          149.3          55.27         -45.49          121.9          118.1
    0.5463              -25.98          22.11          46.69          69.07         -3.585          5.416          149.2          55.25         -45.46          121.9          118.1
    0.5959              -25.97           22.1          46.69          69.06         -3.581          5.415          149.2          55.23         -45.42          121.9          118.1
    0.6456              -25.97           22.1          46.69          69.05         -3.576          5.414          149.1          55.22         -45.38          121.9          118.1
    0.6952              -25.97          22.09          46.69          69.05         -3.572          5.412          149.0           55.2         -45.34          121.9          118.0
    0.7449              -25.96          22.09          46.69          69.04         -3.567          5.411          149.0          55.18         -45.29          121.9          118.0
    0.7946              -25.96          22.09          46.69          69.03         -3.561          5.409          148.9          55.16         -45.24          121.9          118.0
    0.8442              -25.95          22.08          46.69          69.02         -3.555          5.408          148.8          55.13         -45.19          121.9          118.0
    0.8939              -25.94          22.07          46.69          69.01         -3.549          5.406          148.7           55.1         -45.13          121.9          118.0
    0.9436              -25.94          22.07          46.69          68.99         -3.541          5.404          148.6          55.08         -45.06          121.9          117.9
    0.9932              -25.93          22.06          46.69          68.98         -3.534          5.402          148.5          55.04         -44.99          121.9          117.9
     1.043              -25.92          22.05          46.69          68.96         -3.525          5.399          148.4          55.01         -44.91          121.9          117.9
     1.093              -25.91          22.05          46.69          68.95         -3.515          5.396          148.3          54.97         -44.83          121.9          117.8
     1.142               -25.9          22.04          46.69          68.93         -3.505          5.393          148.2          54.93         -44.73          121.9          117.8
     1.192              -25.89          22.03          46.69          68.91         -3.493           5.39          148.0          54.88         -44.62          121.9          117.7
     1.242              -25.88          22.01          46.69          68.89          -3.48          5.386          147.8          54.83          -44.5          121.9          117.7
     1.291              -25.87           22.0          46.69          68.86         -3.465          5.382          147.7          54.77         -44.37          121.9          117.6
     1.341              -25.85          21.99          46.69          68.83         -3.449          5.378          147.4           54.7         -44.22          121.9          117.5
      1.39              -25.84          21.97          46.69           68.8          -3.43          5.372          147.2          54.62         -44.05          121.9          117.5
      1.44              -25.82          21.95          46.69          68.76         -3.409          5.366          146.9          54.54         -43.86          121.9          117.4
      1.49              -25.79          21.93          46.69          68.72         -3.384           5.36          146.6          54.44         -43.64          121.9          117.3
     1.539              -25.77          21.91          46.69          68.67         -3.356          5.352          146.2          54.33         -43.39          121.9          117.2
     1.589              -25.74          21.88          46.69          68.62         -3.324          5.343          145.8           54.2         -43.09          122.0          117.0
     1.639               -25.7          21.84          46.69          68.55         -3.287          5.332          145.3          54.05         -42.76          122.0          116.9
     1.688              -25.66          21.81          46.69          68.48         -3.243           5.32          144.8          53.87         -42.36          122.0          116.7
     1.738              -25.62          21.76          46.69          68.39         -3.192          5.305          144.1          53.66         -41.89          122.0          116.5
     1.788              -25.56          21.71          46.69          68.28          -3.13          5.288          143.3          53.42         -41.34          122.0          116.3
     1.837              -25.49          21.64          46.68          68.15         -3.057          5.268          142.3          53.12         -40.67          122.0          116.0
